<svg xmlns="http://www.w3.org/2000/svg" viewBox="0 0 68.93 96.42"><defs><style>.cls-1{fill:#fc0;}.cls-2{fill:#1a1a1a;}.cls-3{fill:#fff;}</style></defs><title>IPM</title><g id="Branding"><polygon class="cls-1" points="34.47 96.42 68.93 48.56 0 48.56 34.47 96.42"/><path class="cls-2" d="M5.14,33.55H.74a.77.77,0,0,0-.67.84h0a.77.77,0,0,0,.67.84h4.4a.77.77,0,0,0,.67-.84h0A.77.77,0,0,0,5.14,33.55Z"/><path class="cls-2" d="M.07,37.74h0a.77.77,0,0,0,.67.84h4.4a.77.77,0,0,0,.67-.84h0a.77.77,0,0,0-.67-.84H.74A.77.77,0,0,0,.07,37.74Z"/><path class="cls-2" d="M.74,31.87h4.4A.77.77,0,0,0,5.81,31h0a.77.77,0,0,0-.67-.84H.74A.77.77,0,0,0,.07,31h0A.77.77,0,0,0,.74,31.87Z"/><path class="cls-2" d="M.74,28.52h4.4a.77.77,0,0,0,.67-.84h0a.77.77,0,0,0-.67-.84H.74a.77.77,0,0,0-.67.84h0A.77.77,0,0,0,.74,28.52Z"/><path class="cls-2" d="M5.14,6.71H.74a.77.77,0,0,0-.67.84h0a.77.77,0,0,0,.67.84h4.4a.77.77,0,0,0,.67-.84h0A.77.77,0,0,0,5.14,6.71Z"/><path class="cls-2" d="M5.14,13.42H.74a.77.77,0,0,0-.67.84h0a.77.77,0,0,0,.67.84h4.4a.77.77,0,0,0,.67-.84h0A.77.77,0,0,0,5.14,13.42Z"/><path class="cls-2" d="M5.14,20.13H.74A.77.77,0,0,0,.07,21h0a.77.77,0,0,0,.67.84h4.4A.77.77,0,0,0,5.81,21h0A.77.77,0,0,0,5.14,20.13Z"/><path class="cls-2" d="M5.14,16.77H.74a.77.77,0,0,0-.67.84h0a.77.77,0,0,0,.67.84h4.4a.77.77,0,0,0,.67-.84h0A.77.77,0,0,0,5.14,16.77Z"/><path class="cls-2" d="M5.14,23.48H.74a.77.77,0,0,0-.67.84h0a.77.77,0,0,0,.67.84h4.4a.77.77,0,0,0,.67-.84h0A.77.77,0,0,0,5.14,23.48Z"/><path class="cls-2" d="M5.14,10.06H.74a.77.77,0,0,0-.67.84h0a.77.77,0,0,0,.67.84h4.4a.77.77,0,0,0,.67-.84h0A.77.77,0,0,0,5.14,10.06Z"/><path class="cls-2" d="M5.14,3.35H.74a.77.77,0,0,0-.67.84h0A.77.77,0,0,0,.74,5h4.4a.77.77,0,0,0,.67-.84h0A.77.77,0,0,0,5.14,3.35Z"/><path class="cls-2" d="M5.14,0H.74A.77.77,0,0,0,.07.84h0a.77.77,0,0,0,.67.84h4.4A.77.77,0,0,0,5.81.84h0A.77.77,0,0,0,5.14,0Z"/><path class="cls-2" d="M16.69,33.55h-4.4a.77.77,0,0,0-.67.84h0a.77.77,0,0,0,.67.84h4.4a.77.77,0,0,0,.67-.84h0A.77.77,0,0,0,16.69,33.55Z"/><path class="cls-2" d="M11.62,37.74h0a.77.77,0,0,0,.67.84h4.4a.77.77,0,0,0,.67-.84h0a.77.77,0,0,0-.67-.84h-4.4A.77.77,0,0,0,11.62,37.74Z"/><path class="cls-2" d="M12.29,31.87h4.4a.77.77,0,0,0,.67-.84h0a.77.77,0,0,0-.67-.84h-4.4a.77.77,0,0,0-.67.84h0A.77.77,0,0,0,12.29,31.87Z"/><path class="cls-2" d="M12.29,28.52h4.4a.77.77,0,0,0,.67-.84h0a.77.77,0,0,0-.67-.84h-4.4a.77.77,0,0,0-.67.84h0A.77.77,0,0,0,12.29,28.52Z"/><path class="cls-2" d="M16.69,6.71h-4.4a.77.77,0,0,0-.67.84h0a.77.77,0,0,0,.67.84h4.4a.77.77,0,0,0,.67-.84h0A.77.77,0,0,0,16.69,6.71Z"/><path class="cls-2" d="M16.69,13.42h-4.4a.77.77,0,0,0-.67.84h0a.77.77,0,0,0,.67.84h4.4a.77.77,0,0,0,.67-.84h0A.77.77,0,0,0,16.69,13.42Z"/><path class="cls-2" d="M16.69,20.13h-4.4a.77.77,0,0,0-.67.84h0a.77.77,0,0,0,.67.84h4.4a.77.77,0,0,0,.67-.84h0A.77.77,0,0,0,16.69,20.13Z"/><path class="cls-2" d="M16.69,16.77h-4.4a.77.77,0,0,0-.67.84h0a.77.77,0,0,0,.67.84h4.4a.77.77,0,0,0,.67-.84h0A.77.77,0,0,0,16.69,16.77Z"/><path class="cls-2" d="M16.69,23.48h-4.4a.77.77,0,0,0-.67.84h0a.77.77,0,0,0,.67.84h4.4a.77.77,0,0,0,.67-.84h0A.77.77,0,0,0,16.69,23.48Z"/><path class="cls-2" d="M16.69,10.06h-4.4a.77.77,0,0,0-.67.84h0a.77.77,0,0,0,.67.84h4.4a.77.77,0,0,0,.67-.84h0A.77.77,0,0,0,16.69,10.06Z"/><path class="cls-2" d="M16.69,3.35h-4.4a.77.77,0,0,0-.67.84h0a.77.77,0,0,0,.67.84h4.4a.77.77,0,0,0,.67-.84h0A.77.77,0,0,0,16.69,3.35Z"/><path class="cls-2" d="M16.69,0h-4.4a.77.77,0,0,0-.67.84h0a.77.77,0,0,0,.67.84h4.4a.77.77,0,0,0,.67-.84h0A.77.77,0,0,0,16.69,0Z"/><path class="cls-2" d="M29.6,6.71H25.2a.77.77,0,0,0-.67.84h0a.77.77,0,0,0,.67.84h4.4a.77.77,0,0,0,.67-.84h0A.77.77,0,0,0,29.6,6.71Z"/><path class="cls-2" d="M27,13.42h-4.4a.77.77,0,0,0-.67.84h0a.77.77,0,0,0,.67.84H27a.77.77,0,0,0,.67-.84h0A.77.77,0,0,0,27,13.42Z"/><path class="cls-2" d="M24.47,16.77H20.06a.77.77,0,0,0-.66.84h0a.77.77,0,0,0,.66.84h4.41a.77.77,0,0,0,.67-.84h0A.77.77,0,0,0,24.47,16.77Z"/><path class="cls-2" d="M29.6,10.06H25.2a.77.77,0,0,0-.67.84h0a.77.77,0,0,0,.67.84h4.4a.77.77,0,0,0,.67-.84h0A.77.77,0,0,0,29.6,10.06Z"/><path class="cls-2" d="M27,3.35h-4.4a.77.77,0,0,0-.67.84h0a.77.77,0,0,0,.67.84H27a.77.77,0,0,0,.67-.84h0A.77.77,0,0,0,27,3.35Z"/><path class="cls-2" d="M24.47,0H20.06a.77.77,0,0,0-.66.84h0a.77.77,0,0,0,.66.84h4.41a.77.77,0,0,0,.67-.84h0A.77.77,0,0,0,24.47,0Z"/><path class="cls-2" d="M41.52,33.55H37.11a.77.77,0,0,0-.66.84h0a.77.77,0,0,0,.66.84h4.41a.77.77,0,0,0,.66-.84h0A.77.77,0,0,0,41.52,33.55Z"/><path class="cls-2" d="M36.45,37.74h0a.76.76,0,0,0,.66.84h4.41a.76.76,0,0,0,.66-.84h0a.77.77,0,0,0-.66-.84H37.11A.77.77,0,0,0,36.45,37.74Z"/><path class="cls-2" d="M37.11,31.87h4.41a.76.76,0,0,0,.66-.84h0a.77.77,0,0,0-.66-.84H37.11a.77.77,0,0,0-.66.84h0A.76.76,0,0,0,37.11,31.87Z"/><path class="cls-2" d="M37.11,28.52h4.41a.77.77,0,0,0,.66-.84h0a.77.77,0,0,0-.66-.84H37.11a.77.77,0,0,0-.66.84h0A.77.77,0,0,0,37.11,28.52Z"/><path class="cls-2" d="M41.52,6.71H37.11a.77.77,0,0,0-.66.84h0a.77.77,0,0,0,.66.84h4.41a.77.77,0,0,0,.66-.84h0A.77.77,0,0,0,41.52,6.71Z"/><path class="cls-2" d="M41.52,13.42H37.11a.77.77,0,0,0-.66.84h0a.77.77,0,0,0,.66.84h4.41a.77.77,0,0,0,.66-.84h0A.77.77,0,0,0,41.52,13.42Z"/><path class="cls-2" d="M41.52,20.13H37.11a.77.77,0,0,0-.66.84h0a.77.77,0,0,0,.66.84h4.41a.77.77,0,0,0,.66-.84h0A.77.77,0,0,0,41.52,20.13Z"/><path class="cls-2" d="M41.52,16.77H37.11a.77.77,0,0,0-.66.84h0a.76.76,0,0,0,.66.84h4.41a.76.76,0,0,0,.66-.84h0A.77.77,0,0,0,41.52,16.77Z"/><path class="cls-2" d="M41.52,23.48H37.11a.77.77,0,0,0-.66.84h0a.76.76,0,0,0,.66.84h4.41a.76.76,0,0,0,.66-.84h0A.77.77,0,0,0,41.52,23.48Z"/><path class="cls-2" d="M41.52,10.06H37.11a.77.77,0,0,0-.66.84h0a.76.76,0,0,0,.66.84h4.41a.76.76,0,0,0,.66-.84h0A.77.77,0,0,0,41.52,10.06Z"/><path class="cls-2" d="M41.52,3.35H37.11a.77.77,0,0,0-.66.84h0a.76.76,0,0,0,.66.84h4.41a.76.76,0,0,0,.66-.84h0A.77.77,0,0,0,41.52,3.35Z"/><path class="cls-2" d="M41.52,0H37.11a.77.77,0,0,0-.66.84h0a.77.77,0,0,0,.66.84h4.41a.77.77,0,0,0,.66-.84h0A.77.77,0,0,0,41.52,0Z"/><path class="cls-2" d="M48.19,6.71H43.78a.77.77,0,0,0-.66.84h0a.77.77,0,0,0,.66.84h4.41a.77.77,0,0,0,.67-.84h0A.77.77,0,0,0,48.19,6.71Z"/><path class="cls-2" d="M54.86,13.42h-4.4a.77.77,0,0,0-.67.84h0a.77.77,0,0,0,.67.84h4.4a.77.77,0,0,0,.67-.84h0A.77.77,0,0,0,54.86,13.42Z"/><path class="cls-2" d="M51.52,10.06h-4.4a.77.77,0,0,0-.67.84h0a.77.77,0,0,0,.67.84h4.4a.77.77,0,0,0,.67-.84h0A.77.77,0,0,0,51.52,10.06Z"/><path class="cls-2" d="M44.85,3.35h-4.4a.77.77,0,0,0-.67.84h0a.77.77,0,0,0,.67.84h4.4a.77.77,0,0,0,.67-.84h0A.77.77,0,0,0,44.85,3.35Z"/><path class="cls-2" d="M57.13,6.71h4.4a.77.77,0,0,1,.67.84h0a.77.77,0,0,1-.67.84h-4.4a.77.77,0,0,1-.67-.84h0A.77.77,0,0,1,57.13,6.71Z"/><path class="cls-2" d="M53.79,10.06h4.4a.77.77,0,0,1,.67.84h0a.77.77,0,0,1-.67.84h-4.4a.77.77,0,0,1-.67-.84h0A.77.77,0,0,1,53.79,10.06Z"/><path class="cls-2" d="M60.46,3.35h4.41a.77.77,0,0,1,.66.84h0a.77.77,0,0,1-.66.84H60.46a.77.77,0,0,1-.67-.84h0A.77.77,0,0,1,60.46,3.35Z"/><path class="cls-2" d="M68.2,33.55H63.8a.77.77,0,0,0-.67.84h0a.77.77,0,0,0,.67.84h4.4a.77.77,0,0,0,.67-.84h0A.77.77,0,0,0,68.2,33.55Z"/><path class="cls-2" d="M63.13,37.74h0a.77.77,0,0,0,.67.84h4.4a.77.77,0,0,0,.67-.84h0a.77.77,0,0,0-.67-.84H63.8A.77.77,0,0,0,63.13,37.74Z"/><path class="cls-2" d="M63.8,31.87h4.4a.77.77,0,0,0,.67-.84h0a.77.77,0,0,0-.67-.84H63.8a.77.77,0,0,0-.67.84h0A.77.77,0,0,0,63.8,31.87Z"/><path class="cls-2" d="M63.8,28.52h4.4a.77.77,0,0,0,.67-.84h0a.77.77,0,0,0-.67-.84H63.8a.77.77,0,0,0-.67.84h0A.77.77,0,0,0,63.8,28.52Z"/><path class="cls-2" d="M68.2,6.71H63.8a.77.77,0,0,0-.67.84h0a.77.77,0,0,0,.67.84h4.4a.77.77,0,0,0,.67-.84h0A.77.77,0,0,0,68.2,6.71Z"/><path class="cls-2" d="M68.2,13.42H63.8a.77.77,0,0,0-.67.84h0a.77.77,0,0,0,.67.84h4.4a.77.77,0,0,0,.67-.84h0A.77.77,0,0,0,68.2,13.42Z"/><path class="cls-2" d="M68.2,20.13H63.8a.77.77,0,0,0-.67.84h0a.77.77,0,0,0,.67.84h4.4a.77.77,0,0,0,.67-.84h0A.77.77,0,0,0,68.2,20.13Z"/><path class="cls-2" d="M68.2,16.77H63.8a.77.77,0,0,0-.67.84h0a.77.77,0,0,0,.67.84h4.4a.77.77,0,0,0,.67-.84h0A.77.77,0,0,0,68.2,16.77Z"/><path class="cls-2" d="M68.2,23.48H63.8a.77.77,0,0,0-.67.84h0a.77.77,0,0,0,.67.84h4.4a.77.77,0,0,0,.67-.84h0A.77.77,0,0,0,68.2,23.48Z"/><path class="cls-2" d="M68.2,10.06H63.8a.77.77,0,0,0-.67.84h0a.77.77,0,0,0,.67.84h4.4a.77.77,0,0,0,.67-.84h0A.77.77,0,0,0,68.2,10.06Z"/><path class="cls-2" d="M68.2,3.35H63.8a.77.77,0,0,0-.67.84h0A.77.77,0,0,0,63.8,5h4.4a.77.77,0,0,0,.67-.84h0A.77.77,0,0,0,68.2,3.35Z"/><path class="cls-2" d="M68.2,0H63.8a.77.77,0,0,0-.67.84h0a.77.77,0,0,0,.67.84h4.4a.77.77,0,0,0,.67-.84h0A.77.77,0,0,0,68.2,0Z"/><rect class="cls-3" x="29" y="49.76" width="10.93" height="2.17" rx="1.08"/><rect class="cls-3" x="29" y="52.96" width="10.93" height="2.17" rx="1.08"/><rect class="cls-3" x="17.19" y="56.16" width="34.56" height="2.17" rx="1.08"/><rect class="cls-3" x="19.14" y="59.37" width="30.65" height="2.17" rx="1.08"/><rect class="cls-3" x="20.97" y="62.57" width="26.98" height="2.17" rx="1.08"/><rect class="cls-3" x="23.36" y="65.78" width="22.21" height="2.17" rx="1.08"/><rect class="cls-3" x="25.27" y="68.98" width="18.38" height="2.17" rx="1.08"/><rect class="cls-3" x="27.33" y="72.19" width="14.26" height="2.17" rx="1.08"/><rect class="cls-3" x="29.41" y="75.39" width="10.11" height="2.17" rx="1.08"/><rect class="cls-3" x="31.49" y="78.6" width="5.96" height="2.17" rx="1.08"/><circle class="cls-3" cx="34.47" cy="82.89" r="1.08"/><path d="M.5,42v3.37H.07V42Z"/><path d="M1.62,43.8v1.59H1.18V43.22h.44v.25a.54.54,0,0,1,.55-.37.72.72,0,0,1,.56.25,1,1,0,0,1,.21.63v1.41H2.51V44a.42.42,0,0,0-.14-.32A.45.45,0,0,0,2,43.54a.48.48,0,0,0-.32.13A.45.45,0,0,0,1.62,43.8Z"/><path d="M3.84,43.22v-.81h.44v.81h.39v.44H4.28v1.73H3.84V43.66H3.45v-.44Z"/><path d="M5.85,44.9a.64.64,0,0,0,.4.1.75.75,0,0,0,.53-.22l.11-.13.44.15a2,2,0,0,1-.23.29,1.18,1.18,0,0,1-1.7,0A1.21,1.21,0,0,1,6.25,43,1.15,1.15,0,0,1,7,43.3l.11.1.12.13L7,43.75Zm.73-1.35a.59.59,0,0,0-.33-.06.75.75,0,0,0-.53.22.73.73,0,0,0-.22.54.59.59,0,0,0,.06.33Z"/><path d="M8.27,42v3.37H7.84V42Z"/><path d="M9.34,42v3.37H8.91V42Z"/><path d="M10.45,42.42a.29.29,0,0,1,.09.22.29.29,0,0,1-.09.21.31.31,0,0,1-.44,0,.29.29,0,0,1-.09-.21.29.29,0,0,1,.09-.22.31.31,0,0,1,.44,0Zm0,.8v2.17H10V43.22Z"/><path d="M13,43.37v-.15h.44v1.61a1.33,1.33,0,0,1-.35,1,1.27,1.27,0,0,1-.85.31,1.29,1.29,0,0,1-.85-.31l-.23-.29.44-.16a1,1,0,0,0,.11.13.73.73,0,0,0,.53.22c.35,0,.59-.23.72-.68a.72.72,0,0,1-.7.39,1.18,1.18,0,0,1-.85-.34,1.11,1.11,0,0,1-.35-.83,1.2,1.2,0,0,1,1.2-1.2A1,1,0,0,1,13,43.37Zm0,.71a.65.65,0,0,0-.2-.37.73.73,0,0,0-.53-.22.75.75,0,0,0-.53.22.76.76,0,0,0,0,1.07.75.75,0,0,0,.53.22.73.73,0,0,0,.53-.22.65.65,0,0,0,.2-.36Z"/><path d="M14.75,44.9a.64.64,0,0,0,.4.1.75.75,0,0,0,.53-.22l.11-.13.44.15a3.15,3.15,0,0,1-.23.29,1.2,1.2,0,1,1-.11-1.79l.11.1.12.13-.22.22Zm.73-1.35a.59.59,0,0,0-.33-.06.81.81,0,0,0-.7,1.09Z"/><path d="M17.17,43.8v1.59h-.44V43.22h.44v.25a.54.54,0,0,1,.55-.37.71.71,0,0,1,.56.25,1,1,0,0,1,.22.63v1.41h-.44V44a.42.42,0,0,0-.14-.32.45.45,0,0,0-.32-.14.49.49,0,0,0-.33.13A.76.76,0,0,0,17.17,43.8Z"/><path d="M19.4,43.22v-.81h.43v.81h.39v.44h-.39v1.73H19.4V43.66H19v-.44Z"/><path d="M22.66,44.31v1.08h-.44V42h1a1.18,1.18,0,0,1,.69.33,1.13,1.13,0,0,1,.33.81,1.14,1.14,0,0,1-1.14,1.15Zm0-1.85v1.41h.4a.72.72,0,0,0,.7-.71.69.69,0,0,0-.21-.5.68.68,0,0,0-.49-.2Z"/><path d="M26.32,43.37v-.15h.44v2.17h-.44v-.27a1,1,0,0,1-.73.33,1.17,1.17,0,0,1-.85-.35,1.15,1.15,0,0,1-.35-.85,1.13,1.13,0,0,1,.35-.85,1.17,1.17,0,0,1,.85-.35A1,1,0,0,1,26.32,43.37Zm0,1v-.32a.71.71,0,0,0-.2-.37.76.76,0,0,0-1.29.53.76.76,0,0,0,1.29.53A.75.75,0,0,0,26.32,44.41Z"/><path d="M29.11,44.65l.44.15a1.86,1.86,0,0,1-.24.29,1.17,1.17,0,0,1-1.69,0A1.21,1.21,0,0,1,28.46,43a1.13,1.13,0,0,1,.85.36,2.2,2.2,0,0,1,.24.28l-.44.16c-.06-.06-.09-.11-.11-.13a.76.76,0,1,0,0,1.07S29.05,44.71,29.11,44.65Z"/><path d="M31.36,43.22l-.59.73.82,1.44h-.52l-.59-1.08,0,0v1.06H30v-3h.44v1.22l.33-.41Z"/><path d="M33.81,43.37v-.15h.44v2.17h-.44v-.27a1,1,0,0,1-.73.33,1.17,1.17,0,0,1-.85-.35,1.19,1.19,0,0,1-.35-.85,1.2,1.2,0,0,1,1.2-1.2A1,1,0,0,1,33.81,43.37Zm0,1v-.32a.65.65,0,0,0-.2-.37.73.73,0,0,0-.53-.22.75.75,0,0,0-.75.75.75.75,0,0,0,.75.75.77.77,0,0,0,.53-.22A.68.68,0,0,0,33.81,44.41Z"/><path d="M36.77,43.37v-.15h.43v1.61a1.33,1.33,0,0,1-.34,1,1.27,1.27,0,0,1-.85.31,1.29,1.29,0,0,1-.85-.31c0-.05-.12-.15-.23-.29l.44-.16a1,1,0,0,0,.11.13.71.71,0,0,0,.53.22c.35,0,.59-.23.72-.68a.72.72,0,0,1-.7.39,1.18,1.18,0,0,1-.85-.34,1.11,1.11,0,0,1-.35-.83,1.2,1.2,0,0,1,1.2-1.2A1,1,0,0,1,36.77,43.37Zm0,.71a.65.65,0,0,0-.2-.37.75.75,0,0,0-.53-.22A.76.76,0,0,0,36,45a.75.75,0,0,0,.53-.22.65.65,0,0,0,.2-.36Z"/><path d="M38.52,44.9a.62.62,0,0,0,.4.1.77.77,0,0,0,.53-.22s0-.07.11-.13l.44.15a3.15,3.15,0,0,1-.23.29,1.16,1.16,0,0,1-.85.36,1.14,1.14,0,0,1-.85-.36,1.2,1.2,0,0,1,0-1.69,1.18,1.18,0,0,1,1.59-.1l.11.1.12.13-.22.22Zm.73-1.35a.59.59,0,0,0-.33-.06.81.81,0,0,0-.7,1.09Z"/><path d="M42.5,42l1.09,1.89L44.68,42h.4v3.37h-.44V43l-1,1.82L42.53,43v2.44H42.1V42Z"/><path d="M47.69,43.37v-.15h.44v2.17h-.44v-.27a1,1,0,0,1-.73.33,1.17,1.17,0,0,1-.85-.35,1.19,1.19,0,0,1-.35-.85,1.2,1.2,0,0,1,1.2-1.2A1,1,0,0,1,47.69,43.37Zm0,1v-.32a.65.65,0,0,0-.2-.37A.73.73,0,0,0,47,43.5a.75.75,0,0,0-.75.75A.75.75,0,0,0,47,45a.77.77,0,0,0,.53-.22A.68.68,0,0,0,47.69,44.41Z"/><path d="M49.2,43.8v1.59h-.44V43.22h.44v.25a.54.54,0,0,1,.55-.37.71.71,0,0,1,.56.25,1,1,0,0,1,.21.63v1.41h-.43V44a.42.42,0,0,0-.14-.32.45.45,0,0,0-.33-.14.48.48,0,0,0-.32.13A.76.76,0,0,0,49.2,43.8Z"/><path d="M53,43.37v-.15h.44v2.17H53v-.27a1,1,0,0,1-.73.33,1.17,1.17,0,0,1-.85-.35,1.19,1.19,0,0,1-.35-.85,1.2,1.2,0,0,1,1.2-1.2A1,1,0,0,1,53,43.37Zm0,1v-.32a.65.65,0,0,0-.2-.37.71.71,0,0,0-.53-.22.75.75,0,0,0-.75.75.75.75,0,0,0,.75.75.75.75,0,0,0,.53-.22A.68.68,0,0,0,53,44.41Z"/><path d="M56,43.37v-.15h.43v1.61a1.33,1.33,0,0,1-.34,1,1.27,1.27,0,0,1-.85.31,1.29,1.29,0,0,1-.85-.31c0-.05-.12-.15-.23-.29l.44-.16a1,1,0,0,0,.11.13.71.71,0,0,0,.53.22c.35,0,.59-.23.72-.68a.72.72,0,0,1-.7.39,1.18,1.18,0,0,1-.85-.34,1.11,1.11,0,0,1-.35-.83,1.2,1.2,0,0,1,1.2-1.2A1,1,0,0,1,56,43.37Zm0,.71a.65.65,0,0,0-.2-.37.73.73,0,0,0-.53-.22.75.75,0,0,0-.53.22.76.76,0,0,0,0,1.07.75.75,0,0,0,.53.22.73.73,0,0,0,.53-.22.65.65,0,0,0,.2-.36Z"/><path d="M57.75,44.9a.62.62,0,0,0,.4.1.77.77,0,0,0,.53-.22l.11-.13.44.15a3.15,3.15,0,0,1-.23.29,1.16,1.16,0,0,1-.85.36,1.21,1.21,0,0,1-1.2-1.2,1.15,1.15,0,0,1,.35-.85,1.18,1.18,0,0,1,1.59-.1l.11.1.12.13-.22.22Zm.73-1.35a.59.59,0,0,0-.33-.06.81.81,0,0,0-.7,1.09Z"/><path d="M59.73,43.22h.44v.2a.48.48,0,0,1,.49-.31.37.37,0,0,1,.4.36.52.52,0,0,1,.57-.36c.3,0,.46.18.46.55v1.73h-.44V43.86c0-.21-.09-.32-.26-.32a.29.29,0,0,0-.19.08c-.05.05-.07.22-.07.51v1.26h-.44V43.86c0-.21-.09-.32-.26-.32a.29.29,0,0,0-.19.08.56.56,0,0,0-.07.34v1.43h-.44Z"/><path d="M63.39,44.9a.67.67,0,0,0,.4.1.77.77,0,0,0,.54-.22.73.73,0,0,1,.11-.13l.43.15a1.48,1.48,0,0,1-.23.29,1.14,1.14,0,0,1-.85.36,1.21,1.21,0,0,1,0-2.41,1.16,1.16,0,0,1,.75.26l.1.1a.52.52,0,0,1,.12.13l-.22.22Zm.73-1.35a.59.59,0,0,0-.33-.06.75.75,0,0,0-.75.76.59.59,0,0,0,.06.33Z"/><path d="M65.82,43.8v1.59h-.44V43.22h.44v.25a.54.54,0,0,1,.55-.37.72.72,0,0,1,.56.25,1,1,0,0,1,.21.63v1.41H66.7V44a.41.41,0,0,0-.13-.32.45.45,0,0,0-.33-.14.48.48,0,0,0-.32.13A.45.45,0,0,0,65.82,43.8Z"/><path d="M68,43.22v-.81h.44v.81h.39v.44h-.39v1.73H68V43.66h-.39v-.44Z"/></g></svg>