<svg xmlns="http://www.w3.org/2000/svg" viewBox="0 0 210.15 300.8"><defs><style>.cls-1{fill:#1a1a1a;}.cls-2{fill:#fc0;}</style></defs><title>IPM</title><g id="Branding"><polygon class="cls-1" points="105.07 300.8 210.15 154.89 0 154.89 105.07 300.8"/><path class="cls-1" d="M15.67,102.28H2.24a2.34,2.34,0,0,0-2,2.56h0a2.33,2.33,0,0,0,2,2.55H15.67a2.33,2.33,0,0,0,2-2.55h0A2.34,2.34,0,0,0,15.67,102.28Z"/><path class="cls-1" d="M.21,115.07h0a2.33,2.33,0,0,0,2,2.55H15.67a2.33,2.33,0,0,0,2-2.55h0a2.34,2.34,0,0,0-2-2.56H2.24A2.34,2.34,0,0,0,.21,115.07Z"/><path class="cls-1" d="M2.24,97.17H15.67a2.34,2.34,0,0,0,2-2.56h0a2.34,2.34,0,0,0-2-2.56H2.24a2.34,2.34,0,0,0-2,2.56h0A2.34,2.34,0,0,0,2.24,97.17Z"/><path class="cls-1" d="M2.24,86.94H15.67a2.34,2.34,0,0,0,2-2.56h0a2.34,2.34,0,0,0-2-2.56H2.24a2.34,2.34,0,0,0-2,2.56h0A2.34,2.34,0,0,0,2.24,86.94Z"/><path class="cls-1" d="M15.67,20.46H2.24A2.33,2.33,0,0,0,.21,23h0a2.34,2.34,0,0,0,2,2.56H15.67a2.34,2.34,0,0,0,2-2.56h0A2.33,2.33,0,0,0,15.67,20.46Z"/><path class="cls-1" d="M15.67,40.91H2.24a2.34,2.34,0,0,0-2,2.56h0a2.34,2.34,0,0,0,2,2.56H15.67a2.34,2.34,0,0,0,2-2.56h0A2.34,2.34,0,0,0,15.67,40.91Z"/><path class="cls-1" d="M15.67,61.37H2.24a2.34,2.34,0,0,0-2,2.56h0a2.33,2.33,0,0,0,2,2.55H15.67a2.33,2.33,0,0,0,2-2.55h0A2.34,2.34,0,0,0,15.67,61.37Z"/><path class="cls-1" d="M15.67,51.14H2.24a2.34,2.34,0,0,0-2,2.56h0a2.33,2.33,0,0,0,2,2.55H15.67a2.33,2.33,0,0,0,2-2.55h0A2.34,2.34,0,0,0,15.67,51.14Z"/><path class="cls-1" d="M15.67,71.6H2.24a2.33,2.33,0,0,0-2,2.55h0a2.34,2.34,0,0,0,2,2.56H15.67a2.34,2.34,0,0,0,2-2.56h0A2.33,2.33,0,0,0,15.67,71.6Z"/><path class="cls-1" d="M15.67,30.68H2.24a2.34,2.34,0,0,0-2,2.56h0a2.34,2.34,0,0,0,2,2.56H15.67a2.34,2.34,0,0,0,2-2.56h0A2.34,2.34,0,0,0,15.67,30.68Z"/><path class="cls-1" d="M15.67,10.23H2.24a2.34,2.34,0,0,0-2,2.56h0a2.33,2.33,0,0,0,2,2.55H15.67a2.33,2.33,0,0,0,2-2.55h0A2.34,2.34,0,0,0,15.67,10.23Z"/><path class="cls-1" d="M15.67,0H2.24a2.34,2.34,0,0,0-2,2.56h0a2.33,2.33,0,0,0,2,2.55H15.67a2.33,2.33,0,0,0,2-2.55h0A2.34,2.34,0,0,0,15.67,0Z"/><path class="cls-1" d="M50.88,102.28H37.45a2.34,2.34,0,0,0-2,2.56h0a2.33,2.33,0,0,0,2,2.55H50.88a2.33,2.33,0,0,0,2-2.55h0A2.34,2.34,0,0,0,50.88,102.28Z"/><path class="cls-1" d="M35.42,115.07h0a2.33,2.33,0,0,0,2,2.55H50.88a2.33,2.33,0,0,0,2-2.55h0a2.34,2.34,0,0,0-2-2.56H37.45A2.34,2.34,0,0,0,35.42,115.07Z"/><path class="cls-1" d="M37.45,97.17H50.88a2.34,2.34,0,0,0,2-2.56h0a2.34,2.34,0,0,0-2-2.56H37.45a2.34,2.34,0,0,0-2,2.56h0A2.34,2.34,0,0,0,37.45,97.17Z"/><path class="cls-1" d="M37.45,86.94H50.88a2.34,2.34,0,0,0,2-2.56h0a2.34,2.34,0,0,0-2-2.56H37.45a2.34,2.34,0,0,0-2,2.56h0A2.34,2.34,0,0,0,37.45,86.94Z"/><path class="cls-1" d="M50.88,20.46H37.45a2.33,2.33,0,0,0-2,2.55h0a2.34,2.34,0,0,0,2,2.56H50.88a2.34,2.34,0,0,0,2-2.56h0A2.33,2.33,0,0,0,50.88,20.46Z"/><path class="cls-1" d="M50.88,40.91H37.45a2.34,2.34,0,0,0-2,2.56h0a2.34,2.34,0,0,0,2,2.56H50.88a2.34,2.34,0,0,0,2-2.56h0A2.34,2.34,0,0,0,50.88,40.91Z"/><path class="cls-1" d="M50.88,61.37H37.45a2.34,2.34,0,0,0-2,2.56h0a2.33,2.33,0,0,0,2,2.55H50.88a2.33,2.33,0,0,0,2-2.55h0A2.34,2.34,0,0,0,50.88,61.37Z"/><path class="cls-1" d="M50.88,51.14H37.45a2.34,2.34,0,0,0-2,2.56h0a2.33,2.33,0,0,0,2,2.55H50.88a2.33,2.33,0,0,0,2-2.55h0A2.34,2.34,0,0,0,50.88,51.14Z"/><path class="cls-1" d="M50.88,71.6H37.45a2.33,2.33,0,0,0-2,2.55h0a2.34,2.34,0,0,0,2,2.56H50.88a2.34,2.34,0,0,0,2-2.56h0A2.33,2.33,0,0,0,50.88,71.6Z"/><path class="cls-1" d="M50.88,30.68H37.45a2.34,2.34,0,0,0-2,2.56h0a2.34,2.34,0,0,0,2,2.56H50.88a2.34,2.34,0,0,0,2-2.56h0A2.34,2.34,0,0,0,50.88,30.68Z"/><path class="cls-1" d="M50.88,10.23H37.45a2.34,2.34,0,0,0-2,2.56h0a2.33,2.33,0,0,0,2,2.55H50.88a2.33,2.33,0,0,0,2-2.55h0A2.34,2.34,0,0,0,50.88,10.23Z"/><path class="cls-1" d="M50.88,0H37.45a2.34,2.34,0,0,0-2,2.56h0a2.33,2.33,0,0,0,2,2.55H50.88a2.33,2.33,0,0,0,2-2.55h0A2.34,2.34,0,0,0,50.88,0Z"/><path class="cls-1" d="M90.24,20.46H76.82a2.33,2.33,0,0,0-2,2.55h0a2.34,2.34,0,0,0,2,2.56H90.24a2.34,2.34,0,0,0,2-2.56h0A2.33,2.33,0,0,0,90.24,20.46Z"/><path class="cls-1" d="M82.42,40.91H69a2.34,2.34,0,0,0-2,2.56h0A2.34,2.34,0,0,0,69,46H82.42a2.34,2.34,0,0,0,2-2.56h0A2.34,2.34,0,0,0,82.42,40.91Z"/><path class="cls-1" d="M74.6,51.14H61.17a2.34,2.34,0,0,0-2,2.56h0a2.33,2.33,0,0,0,2,2.55H74.6a2.33,2.33,0,0,0,2-2.55h0A2.34,2.34,0,0,0,74.6,51.14Z"/><path class="cls-1" d="M90.24,30.68H76.82a2.34,2.34,0,0,0-2,2.56h0a2.34,2.34,0,0,0,2,2.56H90.24a2.34,2.34,0,0,0,2-2.56h0A2.34,2.34,0,0,0,90.24,30.68Z"/><path class="cls-1" d="M82.42,10.23H69a2.34,2.34,0,0,0-2,2.56h0a2.33,2.33,0,0,0,2,2.55H82.42a2.33,2.33,0,0,0,2-2.55h0A2.34,2.34,0,0,0,82.42,10.23Z"/><path class="cls-1" d="M74.6,0H61.17a2.34,2.34,0,0,0-2,2.56h0a2.33,2.33,0,0,0,2,2.55H74.6a2.33,2.33,0,0,0,2-2.55h0A2.34,2.34,0,0,0,74.6,0Z"/><path class="cls-1" d="M126.57,102.28H113.14a2.34,2.34,0,0,0-2,2.56h0a2.33,2.33,0,0,0,2,2.55h13.43a2.34,2.34,0,0,0,2-2.55h0A2.35,2.35,0,0,0,126.57,102.28Z"/><path class="cls-1" d="M111.11,115.07h0a2.33,2.33,0,0,0,2,2.55h13.43a2.34,2.34,0,0,0,2-2.55h0a2.35,2.35,0,0,0-2-2.56H113.14A2.34,2.34,0,0,0,111.11,115.07Z"/><path class="cls-1" d="M113.14,97.17h13.43a2.35,2.35,0,0,0,2-2.56h0a2.35,2.35,0,0,0-2-2.56H113.14a2.34,2.34,0,0,0-2,2.56h0A2.34,2.34,0,0,0,113.14,97.17Z"/><path class="cls-1" d="M113.14,86.94h13.43a2.35,2.35,0,0,0,2-2.56h0a2.35,2.35,0,0,0-2-2.56H113.14a2.34,2.34,0,0,0-2,2.56h0A2.34,2.34,0,0,0,113.14,86.94Z"/><path class="cls-1" d="M126.57,20.46H113.14a2.33,2.33,0,0,0-2,2.55h0a2.34,2.34,0,0,0,2,2.56h13.43a2.35,2.35,0,0,0,2-2.56h0A2.34,2.34,0,0,0,126.57,20.46Z"/><path class="cls-1" d="M126.57,40.91H113.14a2.34,2.34,0,0,0-2,2.56h0a2.34,2.34,0,0,0,2,2.56h13.43a2.35,2.35,0,0,0,2-2.56h0A2.35,2.35,0,0,0,126.57,40.91Z"/><path class="cls-1" d="M126.57,61.37H113.14a2.34,2.34,0,0,0-2,2.56h0a2.33,2.33,0,0,0,2,2.55h13.43a2.34,2.34,0,0,0,2-2.55h0A2.35,2.35,0,0,0,126.57,61.37Z"/><path class="cls-1" d="M126.57,51.14H113.14a2.34,2.34,0,0,0-2,2.56h0a2.33,2.33,0,0,0,2,2.55h13.43a2.34,2.34,0,0,0,2-2.55h0A2.35,2.35,0,0,0,126.57,51.14Z"/><path class="cls-1" d="M126.57,71.6H113.14a2.33,2.33,0,0,0-2,2.55h0a2.34,2.34,0,0,0,2,2.56h13.43a2.35,2.35,0,0,0,2-2.56h0A2.34,2.34,0,0,0,126.57,71.6Z"/><path class="cls-1" d="M126.57,30.68H113.14a2.34,2.34,0,0,0-2,2.56h0a2.34,2.34,0,0,0,2,2.56h13.43a2.35,2.35,0,0,0,2-2.56h0A2.35,2.35,0,0,0,126.57,30.68Z"/><path class="cls-1" d="M126.57,10.23H113.14a2.34,2.34,0,0,0-2,2.56h0a2.33,2.33,0,0,0,2,2.55h13.43a2.34,2.34,0,0,0,2-2.55h0A2.35,2.35,0,0,0,126.57,10.23Z"/><path class="cls-1" d="M126.57,0H113.14a2.34,2.34,0,0,0-2,2.56h0a2.33,2.33,0,0,0,2,2.55h13.43a2.34,2.34,0,0,0,2-2.55h0A2.35,2.35,0,0,0,126.57,0Z"/><path class="cls-1" d="M146.91,20.46H133.48a2.33,2.33,0,0,0-2,2.55h0a2.34,2.34,0,0,0,2,2.56h13.43a2.34,2.34,0,0,0,2-2.56h0A2.33,2.33,0,0,0,146.91,20.46Z"/><path class="cls-1" d="M167.24,40.91H153.82a2.34,2.34,0,0,0-2,2.56h0a2.34,2.34,0,0,0,2,2.56h13.42a2.34,2.34,0,0,0,2-2.56h0A2.34,2.34,0,0,0,167.24,40.91Z"/><path class="cls-1" d="M157.08,30.68H143.65a2.34,2.34,0,0,0-2,2.56h0a2.34,2.34,0,0,0,2,2.56h13.43a2.34,2.34,0,0,0,2-2.56h0A2.34,2.34,0,0,0,157.08,30.68Z"/><path class="cls-1" d="M136.74,10.23H123.31a2.34,2.34,0,0,0-2,2.56h0a2.33,2.33,0,0,0,2,2.55h13.43a2.33,2.33,0,0,0,2-2.55h0A2.34,2.34,0,0,0,136.74,10.23Z"/><path class="cls-1" d="M174.16,20.46h13.42a2.34,2.34,0,0,1,2,2.55h0a2.35,2.35,0,0,1-2,2.56H174.16a2.34,2.34,0,0,1-2-2.56h0A2.33,2.33,0,0,1,174.16,20.46Z"/><path class="cls-1" d="M164,30.68h13.42a2.34,2.34,0,0,1,2,2.56h0a2.34,2.34,0,0,1-2,2.56H164a2.34,2.34,0,0,1-2-2.56h0A2.34,2.34,0,0,1,164,30.68Z"/><path class="cls-1" d="M184.32,10.23h13.43a2.34,2.34,0,0,1,2,2.56h0a2.33,2.33,0,0,1-2,2.55H184.32a2.33,2.33,0,0,1-2-2.55h0A2.34,2.34,0,0,1,184.32,10.23Z"/><path class="cls-1" d="M207.92,102.28H194.49a2.34,2.34,0,0,0-2,2.56h0a2.33,2.33,0,0,0,2,2.55h13.43a2.33,2.33,0,0,0,2-2.55h0A2.34,2.34,0,0,0,207.92,102.28Z"/><path class="cls-1" d="M192.46,115.07h0a2.33,2.33,0,0,0,2,2.55h13.43a2.33,2.33,0,0,0,2-2.55h0a2.34,2.34,0,0,0-2-2.56H194.49A2.34,2.34,0,0,0,192.46,115.07Z"/><path class="cls-1" d="M194.49,97.17h13.43a2.34,2.34,0,0,0,2-2.56h0a2.34,2.34,0,0,0-2-2.56H194.49a2.34,2.34,0,0,0-2,2.56h0A2.34,2.34,0,0,0,194.49,97.17Z"/><path class="cls-1" d="M194.49,86.94h13.43a2.34,2.34,0,0,0,2-2.56h0a2.34,2.34,0,0,0-2-2.56H194.49a2.34,2.34,0,0,0-2,2.56h0A2.34,2.34,0,0,0,194.49,86.94Z"/><path class="cls-1" d="M207.92,20.46H194.49a2.33,2.33,0,0,0-2,2.55h0a2.34,2.34,0,0,0,2,2.56h13.43A2.34,2.34,0,0,0,210,23h0A2.33,2.33,0,0,0,207.92,20.46Z"/><path class="cls-1" d="M207.92,40.91H194.49a2.34,2.34,0,0,0-2,2.56h0a2.34,2.34,0,0,0,2,2.56h13.43a2.34,2.34,0,0,0,2-2.56h0A2.34,2.34,0,0,0,207.92,40.91Z"/><path class="cls-1" d="M207.92,61.37H194.49a2.34,2.34,0,0,0-2,2.56h0a2.33,2.33,0,0,0,2,2.55h13.43a2.33,2.33,0,0,0,2-2.55h0A2.34,2.34,0,0,0,207.92,61.37Z"/><path class="cls-1" d="M207.92,51.14H194.49a2.34,2.34,0,0,0-2,2.56h0a2.33,2.33,0,0,0,2,2.55h13.43a2.33,2.33,0,0,0,2-2.55h0A2.34,2.34,0,0,0,207.92,51.14Z"/><path class="cls-1" d="M207.92,71.6H194.49a2.33,2.33,0,0,0-2,2.55h0a2.34,2.34,0,0,0,2,2.56h13.43a2.34,2.34,0,0,0,2-2.56h0A2.33,2.33,0,0,0,207.92,71.6Z"/><path class="cls-1" d="M207.92,30.68H194.49a2.34,2.34,0,0,0-2,2.56h0a2.34,2.34,0,0,0,2,2.56h13.43a2.34,2.34,0,0,0,2-2.56h0A2.34,2.34,0,0,0,207.92,30.68Z"/><path class="cls-1" d="M207.92,10.23H194.49a2.34,2.34,0,0,0-2,2.56h0a2.33,2.33,0,0,0,2,2.55h13.43a2.33,2.33,0,0,0,2-2.55h0A2.34,2.34,0,0,0,207.92,10.23Z"/><path class="cls-1" d="M207.92,0H194.49a2.34,2.34,0,0,0-2,2.56h0a2.33,2.33,0,0,0,2,2.55h13.43a2.33,2.33,0,0,0,2-2.55h0A2.34,2.34,0,0,0,207.92,0Z"/><rect class="cls-2" x="88.41" y="158.54" width="33.32" height="6.61" rx="3.3"/><rect class="cls-2" x="88.41" y="168.31" width="33.32" height="6.61" rx="3.3"/><rect class="cls-2" x="52.39" y="178.08" width="105.35" height="6.61" rx="3.3"/><rect class="cls-2" x="58.36" y="187.85" width="93.43" height="6.61" rx="3.3"/><rect class="cls-2" x="63.94" y="197.62" width="82.27" height="6.61" rx="3.3"/><rect class="cls-2" x="71.21" y="207.39" width="67.72" height="6.61" rx="3.3"/><rect class="cls-2" x="77.05" y="217.16" width="56.04" height="6.61" rx="3.3"/><rect class="cls-2" x="83.33" y="226.93" width="43.48" height="6.61" rx="3.3"/><rect class="cls-2" x="89.66" y="236.7" width="30.82" height="6.61" rx="3.3"/><rect class="cls-2" x="95.99" y="246.47" width="18.16" height="6.61" rx="3.3"/><circle class="cls-2" cx="105.07" cy="259.54" r="3.3"/><path d="M1.54,128.1v10.27H.21V128.1Z"/><path d="M4.93,133.54v4.83H3.6v-6.6H4.93v.77a1.63,1.63,0,0,1,1.68-1.13,2.12,2.12,0,0,1,1.71.76A3,3,0,0,1,9,134.08v4.29H7.64v-4.24a1.32,1.32,0,0,0-.42-1,1.39,1.39,0,0,0-1-.41,1.34,1.34,0,0,0-1,.4A1.49,1.49,0,0,0,4.93,133.54Z"/><path d="M11.72,131.77v-2.48h1.33v2.48h1.18v1.33H13.05v5.27H11.72V133.1H10.53v-1.33Z"/><path d="M17.84,136.88a1.83,1.83,0,0,0,1.21.29,2.26,2.26,0,0,0,1.63-.66c.05-.06.16-.2.34-.4l1.33.47a11.32,11.32,0,0,1-.71.9,3.56,3.56,0,0,1-2.59,1.07,3.66,3.66,0,0,1-2.58-6.25,3.67,3.67,0,0,1,4.85-.29l.32.29.37.4-.67.68Zm2.22-4.11a1.83,1.83,0,0,0-1-.18,2.32,2.32,0,0,0-2.29,2.3,1.86,1.86,0,0,0,.18,1Z"/><path d="M25.22,128.09v10.28H23.89V128.09Z"/><path d="M28.49,128.09v10.28H27.15V128.09Z"/><path d="M31.84,129.32a.92.92,0,0,1,0,1.32.93.93,0,0,1-1.31,0,.92.92,0,0,1,0-1.32.93.93,0,0,1,1.31,0Zm0,2.45v6.6H30.52v-6.6Z"/><path d="M39.62,132.22v-.45H41v4.91a4,4,0,0,1-1.05,3,4,4,0,0,1-5.18,0,10.47,10.47,0,0,1-.7-.88l1.33-.48c.17.21.28.34.34.4a2.24,2.24,0,0,0,1.62.67c1.06,0,1.79-.7,2.2-2.08a2.22,2.22,0,0,1-2.14,1.2,3.53,3.53,0,0,1-2.58-1,3.38,3.38,0,0,1-1.07-2.55,3.65,3.65,0,0,1,3.65-3.66A3,3,0,0,1,39.62,132.22Zm0,2.15a2.3,2.3,0,1,0-.62,2.14,2.2,2.2,0,0,0,.62-1.09Z"/><path d="M45,136.88a1.83,1.83,0,0,0,1.21.29,2.26,2.26,0,0,0,1.63-.66c0-.06.16-.2.34-.4l1.32.47a9.76,9.76,0,0,1-.7.9,3.56,3.56,0,0,1-2.59,1.07,3.66,3.66,0,0,1-2.58-6.25,3.67,3.67,0,0,1,4.85-.29l.32.29.36.4-.66.68Zm2.22-4.11a1.83,1.83,0,0,0-1-.18,2.3,2.3,0,0,0-2.29,2.3,1.86,1.86,0,0,0,.18,1Z"/><path d="M52.35,133.54v4.83H51v-6.6h1.33v.77A1.63,1.63,0,0,1,54,131.41a2.09,2.09,0,0,1,1.7.76,3,3,0,0,1,.66,1.91v4.29H55.06v-4.24a1.32,1.32,0,0,0-.42-1,1.39,1.39,0,0,0-1-.41,1.37,1.37,0,0,0-1,.4A1.64,1.64,0,0,0,52.35,133.54Z"/><path d="M59.13,131.77v-2.48h1.33v2.48h1.19v1.33H60.46v5.27H59.13V133.1H58v-1.33Z"/><path d="M69.08,135.09v3.28H67.75V128.1h2.91a3.54,3.54,0,0,1,2.1,1,3.5,3.5,0,0,1-2.47,6Zm0-5.66v4.32h1.21a2.16,2.16,0,0,0,0-4.32Z"/><path d="M80.24,132.23v-.46h1.34v6.61H80.24v-.83a3,3,0,0,1-2.24,1,3.66,3.66,0,0,1,0-7.31A3,3,0,0,1,80.24,132.23Zm0,3.15v-1a2.15,2.15,0,0,0-.62-1.14,2.29,2.29,0,0,0-3.24,3.24,2.29,2.29,0,0,0,3.24,0A2.13,2.13,0,0,0,80.24,135.38Z"/><path d="M88.74,136.11l1.33.47a9.76,9.76,0,0,1-.7.9,3.56,3.56,0,0,1-2.59,1.07,3.66,3.66,0,0,1-2.58-6.25,3.48,3.48,0,0,1,2.58-1.07,3.52,3.52,0,0,1,2.59,1.07,8.7,8.7,0,0,1,.7.88l-1.33.49c-.17-.21-.28-.35-.34-.41a2.24,2.24,0,0,0-1.62-.67,2.29,2.29,0,1,0,1.62,3.92C88.46,136.45,88.57,136.31,88.74,136.11Z"/><path d="M95.6,131.77,93.8,134l2.5,4.39H94.71l-1.8-3.29-.06.07v3.22H91.52v-9.08h1.33V133l1-1.25Z"/><path d="M103.08,132.23v-.46h1.33v6.61h-1.33v-.83a3,3,0,0,1-2.24,1,3.66,3.66,0,0,1,0-7.31A3,3,0,0,1,103.08,132.23Zm0,3.15v-1a2.15,2.15,0,0,0-.62-1.14,2.32,2.32,0,0,0-3.24,0,2.29,2.29,0,0,0,3.24,3.24A2.13,2.13,0,0,0,103.08,135.38Z"/><path d="M112.08,132.22v-.45h1.34v4.91a4,4,0,0,1-1,3,4,4,0,0,1-5.17,0,7.45,7.45,0,0,1-.7-.88l1.32-.48c.17.21.29.34.35.4a2.22,2.22,0,0,0,1.61.67c1.06,0,1.79-.7,2.2-2.08a2.21,2.21,0,0,1-2.14,1.2,3.53,3.53,0,0,1-2.58-1,3.38,3.38,0,0,1-1.07-2.55,3.65,3.65,0,0,1,3.65-3.66A3,3,0,0,1,112.08,132.22Zm0,2.15a2.15,2.15,0,0,0-.62-1.1,2.18,2.18,0,0,0-1.62-.68,2.3,2.3,0,0,0,0,4.59,2.17,2.17,0,0,0,1.62-.67,2.13,2.13,0,0,0,.62-1.09Z"/><path d="M117.43,136.88a1.83,1.83,0,0,0,1.21.29,2.26,2.26,0,0,0,1.63-.66l.34-.4,1.33.47a11.32,11.32,0,0,1-.71.9,3.56,3.56,0,0,1-2.59,1.07,3.66,3.66,0,0,1-2.58-6.25,3.67,3.67,0,0,1,4.85-.29l.32.29.37.4-.67.68Zm2.22-4.11a1.83,1.83,0,0,0-1-.18,2.32,2.32,0,0,0-2.29,2.3,1.86,1.86,0,0,0,.18,1Z"/><path d="M129.55,128.1l3.34,5.76,3.32-5.76h1.21v10.27h-1.33V131l-3.2,5.55L129.67,131v7.42h-1.33V128.1Z"/><path d="M145.39,132.23v-.46h1.34v6.61h-1.34v-.83a3,3,0,0,1-2.23,1,3.66,3.66,0,1,1,0-7.31A3,3,0,0,1,145.39,132.23Zm0,3.15v-1a2.15,2.15,0,0,0-.62-1.14,2.2,2.2,0,0,0-1.61-.66,2.28,2.28,0,0,0-1.63,3.9,2.21,2.21,0,0,0,1.63.67,2.17,2.17,0,0,0,1.61-.67A2.13,2.13,0,0,0,145.39,135.38Z"/><path d="M150,133.54v4.83h-1.34v-6.6H150v.77a1.61,1.61,0,0,1,1.67-1.13,2.09,2.09,0,0,1,1.71.76,2.94,2.94,0,0,1,.65,1.91v4.29H152.7v-4.24a1.32,1.32,0,0,0-.42-1,1.41,1.41,0,0,0-2,0A1.24,1.24,0,0,0,150,133.54Z"/><path d="M161.71,132.23v-.46H163v6.61h-1.33v-.83a3,3,0,0,1-2.24,1,3.64,3.64,0,0,1-3.65-3.66,3.51,3.51,0,0,1,1.06-2.58,3.56,3.56,0,0,1,2.59-1.07A3,3,0,0,1,161.71,132.23Zm0,3.15v-1a2.29,2.29,0,1,0-.62,2.1A2.2,2.2,0,0,0,161.71,135.38Z"/><path d="M170.71,132.22v-.45h1.34v4.91a4,4,0,0,1-1.05,3,4,4,0,0,1-5.18,0,8.7,8.7,0,0,1-.7-.88l1.33-.48c.17.21.28.34.34.4a2.24,2.24,0,0,0,1.62.67c1.06,0,1.79-.7,2.2-2.08a2.22,2.22,0,0,1-2.14,1.2,3.57,3.57,0,0,1-2.59-1,3.42,3.42,0,0,1-1.07-2.55,3.65,3.65,0,0,1,3.66-3.66A3,3,0,0,1,170.71,132.22Zm0,2.15a2.13,2.13,0,0,0-.61-1.1,2.21,2.21,0,0,0-1.62-.68,2.18,2.18,0,0,0-1.62.68,2.29,2.29,0,0,0,0,3.24,2.17,2.17,0,0,0,1.62.67,2.2,2.2,0,0,0,1.62-.67,2.11,2.11,0,0,0,.61-1.09Z"/><path d="M176.05,136.88a1.88,1.88,0,0,0,1.22.29,2.23,2.23,0,0,0,1.62-.66c.06-.06.17-.2.34-.4l1.33.47a9.76,9.76,0,0,1-.7.9,3.56,3.56,0,0,1-2.59,1.07,3.66,3.66,0,0,1-2.58-6.25,3.48,3.48,0,0,1,2.58-1.07,3.53,3.53,0,0,1,2.27.78l.32.29.36.4-.67.68Zm2.23-4.11a1.83,1.83,0,0,0-1-.18,2.21,2.21,0,0,0-1.62.68,2.17,2.17,0,0,0-.67,1.62,2,2,0,0,0,.17,1Z"/><path d="M182.1,131.77h1.33v.61a1.47,1.47,0,0,1,1.49-1,1.12,1.12,0,0,1,1.22,1.11,1.57,1.57,0,0,1,1.74-1.11c.93,0,1.4.57,1.4,1.7v5.26h-1.34v-4.65c0-.65-.26-1-.79-1a.79.79,0,0,0-.56.23c-.16.15-.24.67-.24,1.55v3.84H185v-4.65c0-.65-.27-1-.8-1a.81.81,0,0,0-.57.23,1.8,1.8,0,0,0-.23,1.05v4.34H182.1Z"/><path d="M193.27,136.88a1.83,1.83,0,0,0,1.21.29,2.26,2.26,0,0,0,1.63-.66c0-.06.16-.2.34-.4l1.33.47a11.32,11.32,0,0,1-.71.9,3.56,3.56,0,0,1-2.59,1.07,3.66,3.66,0,0,1-2.58-6.25,3.67,3.67,0,0,1,4.85-.29l.32.29.36.4-.66.68Zm2.22-4.11a1.83,1.83,0,0,0-1-.18,2.3,2.3,0,0,0-2.29,2.3,1.86,1.86,0,0,0,.18,1Z"/><path d="M200.65,133.54v4.83h-1.33v-6.6h1.33v.77a1.63,1.63,0,0,1,1.68-1.13,2.09,2.09,0,0,1,1.7.76,3,3,0,0,1,.66,1.91v4.29h-1.33v-4.24a1.32,1.32,0,0,0-.42-1,1.39,1.39,0,0,0-1-.41,1.37,1.37,0,0,0-1,.4A1.64,1.64,0,0,0,200.65,133.54Z"/><path d="M207.43,131.77v-2.48h1.33v2.48H210v1.33h-1.19v5.27h-1.33V133.1h-1.18v-1.33Z"/></g></svg>